<svg width="18" height="22" viewBox="0 0 18 22" fill="none" xmlns="http://www.w3.org/2000/svg">
<path d="M4 17C2.171 17.412 1 18.044 1 18.754C1 19.994 4.582 21 9 21C13.418 21 17 19.994 17 18.754C17 18.044 15.829 17.412 14 17" stroke="white" stroke-width="1.5" stroke-linecap="round"/>
<path d="M11.5 8C11.5 8.66304 11.2366 9.29893 10.7678 9.76777C10.2989 10.2366 9.66304 10.5 9 10.5C8.33696 10.5 7.70107 10.2366 7.23223 9.76777C6.76339 9.29893 6.5 8.66304 6.5 8C6.5 7.33696 6.76339 6.70107 7.23223 6.23223C7.70107 5.76339 8.33696 5.5 9 5.5C9.66304 5.5 10.2989 5.76339 10.7678 6.23223C11.2366 6.70107 11.5 7.33696 11.5 8Z" stroke="white" stroke-width="1.5"/>
<path d="M10.257 16.494C9.91923 16.819 9.46872 17.0005 9 17.0005C8.53128 17.0005 8.08077 16.819 7.743 16.494C4.654 13.501 0.515 10.158 2.533 5.304C3.626 2.679 6.246 1 9 1C11.754 1 14.375 2.68 15.467 5.304C17.483 10.151 13.354 13.511 10.257 16.494Z" stroke="white" stroke-width="1.5"/>
</svg>
