<svg width="24" height="19" viewBox="0 0 24 19" fill="none" xmlns="http://www.w3.org/2000/svg">
<path d="M3.75403 0C2.75947 0 1.80564 0.395088 1.10238 1.09835C0.399116 1.80161 0.00402832 2.75544 0.00402832 3.75V15.25C0.00402832 16.2446 0.399116 17.1984 1.10238 17.9017C1.80564 18.6049 2.75947 19 3.75403 19H20.25C21.2446 19 22.1984 18.6049 22.9017 17.9017C23.6049 17.1984 24 16.2446 24 15.25V3.75C24 2.75544 23.6049 1.80161 22.9017 1.09835C22.1984 0.395088 21.2446 0 20.25 0H3.75403ZM1.50403 3.75C1.50403 3.15326 1.74108 2.58097 2.16304 2.15901C2.58499 1.73705 3.15729 1.5 3.75403 1.5H20.25C20.8468 1.5 21.4191 1.73705 21.841 2.15901C22.263 2.58097 22.5 3.15326 22.5 3.75V4.529L12 9.907L1.50403 4.531V3.75ZM1.50403 6.217L11.658 11.417C11.7639 11.4712 11.8811 11.4995 12 11.4995C12.119 11.4995 12.2362 11.4712 12.342 11.417L22.5 6.215V15.251C22.5 15.8477 22.263 16.42 21.841 16.842C21.4191 17.2639 20.8468 17.501 20.25 17.501H3.75503C3.15829 17.501 2.58599 17.2639 2.16404 16.842C1.74208 16.42 1.50503 15.8477 1.50503 15.251L1.50403 6.217Z" fill="white"/>
</svg>
